<svg width="160" height="48" viewBox="0 0 160 48" fill="none" xmlns="http://www.w3.org/2000/svg">
<path d="M23.994 0C10.7427 0 0 10.7454 0 24.0001C0 37.2555 10.7427 48 23.994 48C37.2466 48 47.9882 37.2555 47.9882 24.0001C47.9882 10.7462 37.2466 0.00114639 23.9937 0.00114639L23.994 0ZM34.9974 34.6151C34.8951 34.7829 34.7606 34.9289 34.6017 35.0447C34.4429 35.1604 34.2627 35.2437 34.0716 35.2898C33.8806 35.3358 33.6823 35.3438 33.4881 35.3131C33.294 35.2824 33.1078 35.2137 32.9402 35.1109C27.3067 31.6689 20.2148 30.8893 11.8627 32.7981C11.476 32.886 11.0702 32.8168 10.7344 32.6056C10.3987 32.3944 10.1605 32.0585 10.0723 31.6717C10.0283 31.4802 10.0226 31.2819 10.0553 31.0882C10.0881 30.8945 10.1588 30.7091 10.2632 30.5427C10.3677 30.3763 10.504 30.2322 10.6643 30.1186C10.8245 30.0049 11.0056 29.9241 11.1972 29.8805C20.3371 27.7918 28.1771 28.6912 34.5018 32.5573C35.2066 32.9901 35.4301 33.9101 34.9974 34.6151ZM37.9343 28.0801C37.3927 28.9605 36.2409 29.2385 35.3613 28.6969C28.9118 24.7315 19.0805 23.5831 11.4519 25.8994C10.4625 26.1983 9.4176 25.6406 9.11732 24.6527C8.97404 24.1778 9.02491 23.6654 9.25877 23.2279C9.49263 22.7904 9.89039 22.4635 10.3648 22.319C19.0787 19.6743 29.9117 20.9553 37.3182 25.5079C38.1979 26.0496 38.4758 27.2014 37.9343 28.0801ZM38.1864 21.2752C30.4533 16.6808 17.6946 16.2583 10.3112 18.4998C9.12563 18.8595 7.87183 18.19 7.51253 17.004C7.33976 16.4343 7.4003 15.8192 7.68082 15.2941C7.96134 14.7689 8.43889 14.3767 9.00845 14.2037C17.484 11.6301 31.5735 12.1273 40.4768 17.4142C40.7306 17.5643 40.9522 17.7631 41.1291 17.999C41.3059 18.235 41.4345 18.5035 41.5074 18.7893C41.5803 19.075 41.5962 19.3723 41.554 19.6642C41.5119 19.9561 41.4126 20.2368 41.2619 20.4902C40.6316 21.5569 39.2505 21.9086 38.1876 21.2752H38.1864ZM65.2796 22.1556C61.1366 21.1674 60.4002 20.4739 60.4002 19.0165C60.4002 17.6397 61.6953 16.7131 63.6236 16.7131C65.4917 16.7131 67.3426 17.4167 69.2852 18.8652C69.3425 18.909 69.417 18.9265 69.4886 18.9151C69.5246 18.9099 69.5592 18.8974 69.5903 18.8784C69.6213 18.8594 69.6481 18.8342 69.6691 18.8044L71.6919 15.9522C71.7319 15.8957 71.7488 15.826 71.7392 15.7575C71.7296 15.6889 71.6943 15.6265 71.6404 15.5831C69.3282 13.728 66.7266 12.826 63.6837 12.826C59.2112 12.826 56.0852 15.5112 56.0852 19.353C56.0852 23.4728 58.7814 24.9316 63.4402 26.0576C67.4028 26.971 68.0732 27.7362 68.0732 29.1038C68.0732 30.6199 66.7208 31.5628 64.5433 31.5628C62.1251 31.5628 60.151 30.746 57.9448 28.8373C57.8898 28.7908 57.819 28.7672 57.7471 28.7714C57.6726 28.7771 57.6067 28.8115 57.5608 28.866L55.2916 31.5657C55.197 31.6803 55.2085 31.8466 55.3174 31.944C57.8846 34.2368 61.042 35.4462 64.4516 35.4462C69.2709 35.4462 72.3853 32.8124 72.3853 28.7341C72.3939 25.293 70.3338 23.3871 65.2882 22.1593L65.2796 22.1556ZM83.2902 18.0687C81.2015 18.0687 79.4881 18.8919 78.0727 20.5785V18.6801C78.073 18.6083 78.0448 18.5393 77.9943 18.4883C77.9438 18.4373 77.8752 18.4085 77.8034 18.4081H74.093C73.944 18.4081 73.8237 18.5302 73.8237 18.6801V39.7738C73.8237 39.9229 73.944 40.0461 74.093 40.0461H77.8034C77.9524 40.0461 78.0727 39.9229 78.0727 39.7738V33.1162C79.4881 34.7011 81.2015 35.4777 83.2902 35.4777C87.1726 35.4777 91.1036 32.4885 91.1036 26.7741C91.1093 21.0585 87.1783 18.0685 83.2931 18.0685L83.2902 18.0687ZM86.7886 26.7741C86.7886 29.6828 84.9979 31.7147 82.4307 31.7147C79.895 31.7147 77.981 29.5911 77.981 26.7741C77.981 23.9569 79.895 21.8338 82.4307 21.8338C84.9549 21.8335 86.7886 23.911 86.7886 26.7741ZM101.175 18.0687C96.175 18.0687 92.2583 21.9195 92.2583 26.8363C92.2583 31.7004 96.1492 35.5093 101.115 35.5093C106.132 35.5093 110.06 31.6718 110.06 26.7741C110.06 21.8931 106.157 18.0687 101.175 18.0687ZM101.175 31.7434C98.5159 31.7434 96.5102 29.6054 96.5102 26.7727C96.5102 23.9271 98.4471 21.8621 101.115 21.8621C103.791 21.8621 105.808 23.9993 105.808 26.8349C105.808 29.6799 103.859 31.7434 101.175 31.7434ZM120.735 18.4081H116.653V14.2335C116.653 14.198 116.646 14.1628 116.632 14.1299C116.619 14.097 116.599 14.0671 116.574 14.0419C116.549 14.0166 116.519 13.9966 116.487 13.9829C116.454 13.9691 116.419 13.962 116.383 13.9618H112.673C112.524 13.9618 112.401 14.0839 112.401 14.2335V18.4081H110.618C110.469 18.4081 110.349 18.5302 110.349 18.6801V21.869C110.349 22.0186 110.469 22.141 110.618 22.141H112.401V30.3935C112.401 33.7266 114.06 35.4176 117.334 35.4176C118.664 35.4176 119.767 35.1424 120.807 34.552C120.893 34.5062 120.945 34.4145 120.945 34.317V31.2791C120.945 31.1874 120.896 31.0986 120.816 31.0498C120.777 31.0249 120.732 31.0107 120.685 31.0087C120.639 31.0066 120.593 31.0169 120.552 31.0384C119.839 31.3966 119.148 31.5628 118.375 31.5628C117.185 31.5628 116.653 31.0212 116.653 29.8117V22.1424H120.735C120.884 22.1424 121.005 22.0203 121.005 21.8704V18.6818C121.006 18.6462 121 18.6107 120.987 18.5776C120.974 18.5444 120.955 18.5142 120.93 18.4887C120.905 18.4633 120.875 18.4432 120.842 18.4296C120.809 18.4161 120.774 18.4093 120.738 18.4098L120.735 18.4081ZM134.958 18.4244V17.9117C134.958 16.4033 135.537 15.7307 136.832 15.7307C137.606 15.7307 138.227 15.8843 138.924 16.1165C139.01 16.1434 139.098 16.1299 139.167 16.0786C139.202 16.0534 139.23 16.0203 139.25 15.9819C139.269 15.9435 139.279 15.901 139.279 15.8579V12.7312C139.28 12.6728 139.261 12.6158 139.227 12.5687C139.192 12.5217 139.143 12.4873 139.087 12.4707C138.353 12.252 137.414 12.0276 136.004 12.0276C132.58 12.0276 130.766 13.9575 130.766 17.6068V18.392H128.984C128.835 18.392 128.712 18.5141 128.712 18.6637V21.869C128.712 22.0186 128.835 22.141 128.984 22.141H130.766V34.8673C130.766 35.0192 130.89 35.1396 131.039 35.1396H134.746C134.898 35.1396 135.018 35.0192 135.018 34.8673V22.1419H138.482L143.789 34.8673C143.187 36.2028 142.594 36.4694 141.786 36.4694C141.133 36.4694 140.442 36.2745 139.74 35.8876C139.674 35.854 139.597 35.8468 139.525 35.8675C139.454 35.8933 139.394 35.9449 139.365 36.0137L138.107 38.7736C138.047 38.9054 138.098 39.0573 138.225 39.1261C139.537 39.8369 140.72 40.1407 142.184 40.1407C144.923 40.1407 146.439 38.8624 147.771 35.429L154.207 18.7958C154.223 18.7547 154.229 18.7101 154.224 18.6659C154.219 18.6218 154.203 18.5797 154.178 18.5434C154.154 18.507 154.121 18.4772 154.082 18.4566C154.044 18.436 154.001 18.4252 153.957 18.4253H150.095C149.978 18.4253 149.874 18.4989 149.837 18.6075L145.88 29.9092L141.548 18.6001C141.529 18.5488 141.494 18.5047 141.449 18.4735C141.404 18.4422 141.351 18.4254 141.296 18.4253H134.958V18.4244ZM126.712 18.4081H123.002C122.853 18.4081 122.73 18.5302 122.73 18.6801V34.8673C122.73 35.0192 122.853 35.1396 123.002 35.1396H126.712C126.861 35.1396 126.984 35.0192 126.984 34.8673V18.6812C126.984 18.6454 126.977 18.61 126.964 18.577C126.95 18.5439 126.93 18.5139 126.905 18.4886C126.88 18.4633 126.849 18.4433 126.816 18.4297C126.783 18.4161 126.748 18.4091 126.712 18.4092V18.4081ZM124.878 11.0371C123.409 11.0371 122.217 12.2271 122.217 13.697C122.217 14.0466 122.286 14.3928 122.419 14.7159C122.553 15.0389 122.749 15.3324 122.996 15.5796C123.244 15.8268 123.537 16.0229 123.86 16.1566C124.183 16.2904 124.529 16.3592 124.878 16.3592C126.348 16.3592 127.537 15.1678 127.537 13.697C127.537 12.2273 126.345 11.0371 124.878 11.0371ZM157.375 23.613C155.909 23.613 154.765 22.4336 154.765 21.0015C154.765 19.5694 155.923 18.3766 157.39 18.3766C158.857 18.3766 160 19.5556 160 20.9866C160 22.4187 158.842 23.613 157.375 23.613ZM157.39 18.6362C156.052 18.6362 155.04 19.6995 155.04 21.0015C155.04 22.3029 156.046 23.3519 157.375 23.3519C158.714 23.3519 159.725 22.2894 159.725 20.9866C159.725 19.6851 158.719 18.6362 157.39 18.6362ZM157.969 21.2551L158.708 22.2892H158.083L157.418 21.3405H156.848V22.2892H156.327V19.5482H157.547C158.186 19.5482 158.605 19.874 158.605 20.4226C158.608 20.8719 158.347 21.1465 157.971 21.2551H157.969ZM157.527 20.0185H156.848V20.8854H157.527C157.865 20.8854 158.069 20.7195 158.069 20.4515C158.069 20.1695 157.865 20.0185 157.527 20.0185Z" fill="black"/>
</svg>
