<svg width="160" height="48" viewBox="0 0 160 48" fill="none" xmlns="http://www.w3.org/2000/svg">
<path d="M24.4 48C37.8757 48 48.8 37.2548 48.8 24C48.8 10.7452 37.8757 0 24.4 0C10.9243 0 0 10.7452 0 24C0 37.2548 10.9243 48 24.4 48Z" fill="#FF0000"/>
<path d="M24.4 38.4C32.4634 38.4 39 31.9529 39 24C39 16.0471 32.4634 9.59998 24.4 9.59998C16.3367 9.59998 9.80005 16.0471 9.80005 24C9.80005 31.9529 16.3367 38.4 24.4 38.4Z" fill="#FF0000" stroke="white" stroke-width="1.2"/>
<path d="M19.3999 31L32.1999 24L19.3999 17V31Z" fill="white"/>
<path d="M74.8001 19.2C73.6001 25 72.8001 31.8 72.4001 34.8H72.0001C71.6001 31.8 70.8001 25 69.6001 19.4L66.6001 5.39999H57.6001V43.2H63.2001V12L63.8001 15L69.6001 43.2H75.2001L80.8001 15L81.2001 12V43H86.8001V5.39999H77.6001C77.8001 5.39999 74.8001 19.2 74.8001 19.2Z" fill="black"/>
<path d="M102 37.4C101.4 38.4 100.4 39.2 99.2 39.2C98 39.2 97.4 38.2 97.4 35.8V15.6H91V36C91 41 92.8 43.4 96.6 43.4C99.2 43.4 101.2 42.2 102.8 39.6H103L103.6 43H108.6V15.6H102V37.4Z" fill="black"/>
<path d="M120.8 26.4C118.8 25 117.4 24 117.4 21.8C117.4 20.2 118.2 19.4 119.8 19.4C121.6 19.4 122.2 20.6 122.2 24.8L127.6 24.6C128 18 125.8 15.2 119.8 15.2C114.4 15.2 111.6 17.6 111.6 22.4C111.6 26.8 113.8 28.8 117.4 31.6C120.6 34 122.4 35.2 122.4 37.2C122.4 38.6 121.4 39.6 119.8 39.6C117.8 39.6 116.8 37.8 117 34.8H111.6C110.8 40.6 113.2 43.8 119.4 43.8C125 43.8 127.8 41.4 127.8 36.4C128.2 31.8 125.8 30 120.8 26.4Z" fill="black"/>
<path d="M137.8 15.6H131.6V43H137.8V15.6Z" fill="black"/>
<path d="M134.8 4.60001C132.4 4.60001 131.4 5.40001 131.4 8.40001C131.4 11.4 132.6 12.2 134.8 12.2C137.2 12.2 138.2 11.4 138.2 8.40001C138.2 5.60001 137.2 4.60001 134.8 4.60001Z" fill="black"/>
<path d="M158.4 33.2L152.8 33C152.8 37.8 152.2 39.4 150.4 39.4C148.6 39.4 148.2 37.6 148.2 32V26.6C148.2 21 148.6 19.4 150.4 19.4C152.2 19.4 152.6 21 152.6 26.2L158.2 25.8C158.6 21.6 158 18.6 156.4 17C155.2 15.8 153.2 15.2 150.6 15.2C144.4 15.2 141.8 18.4 141.8 27.6V31.4C141.8 40.8 144 43.8 150.4 43.8C153 43.8 155 43.2 156.2 42C157.8 40.2 158.4 37.4 158.4 33.2Z" fill="black"/>
</svg>
