<svg width="160" height="32" viewBox="0 0 160 32" fill="none" xmlns="http://www.w3.org/2000/svg">
<path fill-rule="evenodd" clip-rule="evenodd" d="M49.1463 8.18127V6.16618C49.1463 5.88407 49.3415 5.68256 49.6147 5.64225H58.1239C58.3971 5.64225 58.5923 5.84376 58.5923 6.12587V6.16618V7.85885C58.4752 8.34248 58.28 8.7455 57.9678 9.10821L53.5571 15.7177C55.2355 15.6371 56.9139 15.9998 58.3971 16.8059C58.6704 16.9671 58.8265 17.2492 58.8265 17.5716V19.7076C58.8265 19.9897 58.6313 20.1912 58.3971 20.1912C58.3191 20.1912 58.28 20.1912 58.202 20.1509C55.3916 18.6194 52.0348 18.6194 49.2244 20.1509C48.9121 20.3121 48.6389 19.9897 48.6389 19.6673V17.6522C48.5999 17.1686 48.717 16.6849 48.9512 16.2819L54.0645 8.58429H49.6538C49.3805 8.66489 49.1463 8.46338 49.1463 8.18127ZM14.6021 20.2315C14.3679 20.2315 14.1337 20.03 14.1337 19.7479V5.64225C14.1337 5.36014 14.3679 5.11833 14.6412 5.11833H17.1393C17.4125 5.11833 17.6077 5.31984 17.6467 5.60195V7.45584H17.6857C18.1541 5.84376 19.5984 4.79592 21.1987 4.83622C22.8771 4.83622 23.931 5.64225 24.6726 7.45584C25.4533 5.36014 27.7563 4.31229 29.786 5.11833C30.4495 5.36014 31.035 5.80346 31.4644 6.36769C32.3231 7.53644 32.1279 9.26942 32.1279 10.8009V19.7479C32.1279 20.03 31.8937 20.2718 31.6205 20.2718H28.9272C28.654 20.2718 28.4588 20.03 28.4588 19.7882V12.2921C28.4979 11.4054 28.4588 10.5188 28.3808 9.63213C28.2637 8.8664 27.5611 8.30217 26.8195 8.42308C26.1169 8.46338 25.4923 8.9067 25.2191 9.59183C24.9849 10.4785 24.9068 11.4054 24.9849 12.2921V19.7479C24.9849 20.03 24.7507 20.2718 24.4775 20.2718H21.7842C21.511 20.2718 21.3158 20.03 21.3158 19.7882V12.2921C21.3158 10.7203 21.55 8.38278 19.6764 8.38278C17.7638 8.38278 17.8419 10.6397 17.8419 12.2921V19.7479C17.8419 20.03 17.6077 20.2718 17.3344 20.2718C17.3344 20.2718 17.3344 20.2718 17.2954 20.2718H14.6021V20.2315ZM65.6573 4.87652C69.6386 4.87652 71.7855 8.30217 71.7855 12.6951C71.7855 16.9268 69.4044 20.2718 65.6573 20.2718C61.754 20.2718 59.6072 16.8462 59.6072 12.5339C59.6072 8.22157 61.754 4.87652 65.6573 4.87652ZM63.5495 12.0905C63.5495 13.7832 63.5495 17.4104 65.6573 17.4104C67.7651 17.4104 67.8431 14.5087 67.8431 12.6951C67.8822 11.4457 67.7651 10.2367 67.4528 9.0276C67.2967 8.18127 66.516 7.61705 65.6963 7.69765C63.6666 7.69765 63.5495 10.3979 63.5495 12.0905ZM77.0549 20.2315H74.5958C74.3616 20.2315 74.1665 19.9897 74.1665 19.7479V5.64225C74.2055 5.36014 74.4007 5.15863 74.6349 5.19893H76.9378C77.133 5.19893 77.3281 5.36014 77.3672 5.60195V7.73795H77.4062C78.1088 5.80346 79.0846 4.91682 80.8021 4.91682C81.9731 4.83622 83.066 5.48105 83.6905 6.5692C84.3541 7.69765 84.3541 9.59183 84.3541 10.9621V19.8688C84.315 20.1106 84.1199 20.3121 83.8857 20.3121H81.3876C81.1534 20.3121 80.9582 20.1106 80.9582 19.8688V12.2517C80.9582 10.68 81.1143 8.46338 79.3969 8.46338C78.7724 8.50368 78.2259 8.947 77.9917 9.59183C77.6794 10.4382 77.5623 11.3651 77.6014 12.2517V19.7479C77.5623 20.03 77.3281 20.2718 77.0549 20.2315ZM44.9308 20.03C44.7746 20.1912 44.5014 20.1912 44.3062 20.1106C43.7207 19.627 43.2133 19.0225 42.823 18.297C41.7691 19.627 40.1687 20.3524 38.4903 20.2718C36.2264 20.2718 34.548 18.8612 34.548 16.0804C34.509 14.1459 35.6019 12.413 37.3584 11.6875C38.8026 11.0427 40.7933 10.9218 42.3155 10.7606V10.3979C42.3936 9.71274 42.2765 9.06791 42.0033 8.46338C41.652 7.97976 41.0665 7.73795 40.52 7.77825C39.5052 7.69765 38.6074 8.38278 38.4123 9.39032C38.3732 9.63214 38.1781 9.83364 37.9439 9.87394L35.4067 9.59183C35.1725 9.55153 34.9774 9.26941 35.0554 9.0276C35.6409 5.84376 38.4123 4.91682 40.9494 4.91682C42.3936 4.87652 43.7598 5.36014 44.8917 6.24678C46.1798 7.45584 46.0627 9.10821 46.0627 10.8815V15.0729C46.0627 15.9998 46.414 16.8865 47.0385 17.5716C47.2337 17.7731 47.2337 18.0955 47.0385 18.297C46.375 18.7 45.4382 19.5464 44.9308 20.03ZM42.3546 13.5414V12.9772C40.442 12.9772 38.4513 13.3802 38.4513 15.5565C38.4513 16.685 39.0368 17.4104 40.0516 17.4104C40.8323 17.3701 41.5349 16.9268 41.8862 16.2416C42.2765 15.3953 42.4327 14.4684 42.3546 13.5414ZM10.3866 20.03C10.2304 20.1912 9.95721 20.1912 9.76204 20.1106C9.17655 19.627 8.66912 18.9822 8.27879 18.3373C7.2249 19.6673 5.62455 20.3927 3.94613 20.3121C1.72125 20.3121 0.00379728 18.9016 0.00379728 16.1207C-0.0742687 14.1862 1.05769 12.4533 2.81417 11.7278C4.21936 11.083 6.21004 10.9621 7.73233 10.8009V10.4382C7.81039 9.75304 7.69329 9.10821 7.42006 8.50369C7.06877 8.02006 6.5223 7.77825 5.93681 7.81855C4.96099 7.73795 4.06323 8.42308 3.82903 9.43062C3.79 9.67243 3.63386 9.87395 3.36063 9.91425L0.823489 9.63213C0.589291 9.59183 0.43316 9.30972 0.472193 9.06791C1.05769 5.88407 3.82903 4.95712 6.32714 4.95712C7.77136 4.91682 9.13752 5.36014 10.2695 6.28709C11.5576 7.49614 11.4405 9.14851 11.4405 10.9218V15.1132C11.4405 16.0401 11.7918 16.9268 12.4163 17.6119C12.6115 17.8134 12.6115 18.0955 12.4163 18.297C11.8698 18.7 10.894 19.5464 10.3866 20.03ZM7.81039 12.9772C5.89778 12.9772 3.9071 13.3802 3.9071 15.5565C3.9071 16.685 4.49259 17.4104 5.50745 17.4104C6.28811 17.3701 6.9907 16.9268 7.30296 16.2416C7.73233 15.3953 7.88846 14.4684 7.81039 13.5011V12.9772ZM34.3138 31.9996C26.0778 32.0399 18.1151 28.7352 11.9869 22.6899C11.5185 22.2466 11.9479 21.6018 12.4944 21.9645C19.3251 26.1962 27.0146 28.4531 34.8993 28.4128C40.7542 28.3725 46.5311 27.0828 51.9567 24.6244C52.7764 24.2214 53.479 25.2289 52.6593 25.8738C47.6631 29.8636 40.481 31.9996 34.3138 31.9996ZM54.5719 23.4557C53.9474 22.6093 50.3173 23.0526 48.6779 23.2541C48.1705 23.2944 48.0924 22.8511 48.5608 22.5287C51.4493 20.3927 56.1723 20.9972 56.7187 21.7227C57.2652 22.4481 56.5626 27.4052 53.8693 29.783C53.44 30.1458 53.0496 29.9442 53.2448 29.4606C53.8303 27.8889 55.1964 24.302 54.5719 23.4557ZM137.79 17.894C138.298 17.5313 138.571 16.9268 138.571 16.3222C138.571 15.9192 138.415 15.4759 138.142 15.1938C137.673 14.7908 137.088 14.5087 136.502 14.3474L134.043 13.4205C131.896 12.6548 130.842 11.2845 130.842 9.43062C130.803 8.26187 131.35 7.13342 132.287 6.40799C133.38 5.60195 134.746 5.19894 136.112 5.27954C137.361 5.27954 138.61 5.52135 139.781 5.92437C139.976 5.96467 140.132 6.08557 140.288 6.20648C140.405 6.36768 140.444 6.5692 140.444 6.77071V7.53644C140.444 7.85885 140.327 8.06036 140.054 8.06036C139.82 8.06036 139.586 7.97976 139.391 7.89916C138.376 7.61705 137.322 7.45584 136.268 7.45584C134.433 7.45584 133.497 8.06037 133.497 9.30972C133.458 9.75304 133.653 10.1964 133.965 10.4785C134.511 10.8815 135.136 11.2039 135.8 11.4054L138.102 12.2517C139 12.5742 139.859 13.1384 140.523 13.8235C141.03 14.4684 141.303 15.3147 141.303 16.161C141.342 17.4104 140.796 18.6194 139.781 19.3852C138.61 20.2315 137.166 20.6748 135.682 20.5942C134.199 20.6345 132.716 20.3524 131.311 19.7882C131.116 19.7076 130.959 19.627 130.842 19.4658C130.764 19.3046 130.686 19.1031 130.725 18.9015V18.0955C130.725 17.7731 130.842 17.5716 131.077 17.5716C131.311 17.6119 131.584 17.6522 131.818 17.7328C133.106 18.1358 134.433 18.3373 135.761 18.3373C136.385 18.4985 137.166 18.297 137.79 17.894ZM125.065 5.84376C125.026 5.56165 125.222 5.27954 125.495 5.23924C125.534 5.23924 125.573 5.23924 125.612 5.23924H127.251C127.525 5.19893 127.759 5.40045 127.798 5.68256C127.798 5.72286 127.798 5.76316 127.798 5.84376V19.5867C127.837 19.8688 127.642 20.1509 127.368 20.1912C127.329 20.1912 127.29 20.1912 127.212 20.1912H126.08C125.924 20.1912 125.768 20.1509 125.651 20.0703C125.534 19.9494 125.456 19.7882 125.417 19.627L125.222 18.5791C123.699 19.8688 121.826 20.5539 119.835 20.6345C118.703 20.7151 117.571 20.2718 116.751 19.4658C116.01 18.5388 115.619 17.3298 115.698 16.1207V5.84376C115.659 5.56165 115.854 5.27954 116.127 5.23924C116.166 5.23924 116.205 5.23924 116.244 5.23924H117.883C118.157 5.19893 118.391 5.40045 118.43 5.68256C118.43 5.72286 118.43 5.76316 118.43 5.84376V15.1938C118.352 16.0401 118.586 16.8462 119.015 17.5313C119.484 18.0955 120.186 18.3776 120.889 18.297C122.333 18.2567 123.777 17.7731 124.948 16.8865L125.065 5.84376ZM109.96 20.2315C109.686 20.2718 109.413 20.0703 109.374 19.7882C109.374 19.7479 109.374 19.7076 109.374 19.627V10.0755C109.413 9.30972 109.257 8.54399 108.828 7.89916C108.398 7.41554 107.774 7.13342 107.11 7.21402C105.627 7.25432 104.183 7.69765 102.934 8.54398C102.934 8.70519 102.934 8.8261 102.934 8.98731V19.6673C102.973 19.9494 102.778 20.2315 102.504 20.2718C102.465 20.2718 102.426 20.2718 102.348 20.2718H100.67C100.397 20.3121 100.123 20.1106 100.084 19.8285C100.084 19.7882 100.084 19.7479 100.084 19.6673V10.1158C100.123 9.35002 99.9673 8.58429 99.5379 7.93946C99.1085 7.45583 98.484 7.17372 97.8205 7.25433C96.3372 7.25433 94.893 7.69765 93.683 8.54398V19.6673C93.722 19.9494 93.5268 20.2315 93.2536 20.2718C93.2146 20.2718 93.1755 20.2718 93.0975 20.2718H91.4191C91.1458 20.3121 90.8726 20.1106 90.8726 19.8285C90.8726 19.7882 90.8726 19.7479 90.8726 19.6673V5.92437C90.8335 5.64225 91.0287 5.40044 91.3019 5.31984C91.341 5.31984 91.38 5.31984 91.4581 5.31984H92.7071C92.8633 5.31984 93.0194 5.36014 93.1365 5.44075C93.2536 5.56165 93.3317 5.72286 93.3707 5.88407L93.5268 6.811C95.0491 5.60195 96.9227 4.95713 98.8353 4.87652C100.592 4.87652 101.763 5.56165 102.426 6.97222C104.027 5.68256 105.978 4.95713 108.047 4.87652C109.14 4.79592 110.233 5.23923 111.053 6.00497C111.794 6.93191 112.185 8.10067 112.107 9.26942V19.627C112.146 19.9091 111.95 20.1912 111.677 20.2315C111.638 20.2315 111.599 20.2315 111.521 20.2315H109.96ZM153.364 8.9067C152.662 9.71274 152.311 11.0427 152.311 12.8563V13.219C152.311 14.9923 152.662 16.2819 153.364 17.088C154.262 17.9746 155.472 18.4582 156.682 18.3373C157.541 18.3373 158.4 18.1761 159.219 17.9343C159.375 17.894 159.493 17.8537 159.649 17.8537C159.883 17.8537 160 18.0552 160 18.4179V19.1837C160 19.3852 159.961 19.5867 159.883 19.7479C159.766 19.9091 159.61 19.9897 159.415 20.0703C158.4 20.5136 157.307 20.7151 156.214 20.6748C153.989 20.6748 152.311 20.03 151.14 18.7C149.969 17.4104 149.383 15.5162 149.383 13.0175C149.383 10.5188 149.969 8.66489 151.179 7.29463C152.545 5.88407 154.379 5.15864 156.292 5.27954C157.307 5.27954 158.322 5.48105 159.258 5.84376C159.415 5.88407 159.571 6.00497 159.688 6.12587C159.766 6.28708 159.844 6.48859 159.805 6.7304V7.49614C159.805 7.89916 159.688 8.06036 159.454 8.06036C159.297 8.06036 159.141 8.02006 158.985 7.97976C158.244 7.73795 157.424 7.61704 156.643 7.61704C155.199 7.65734 154.067 8.10067 153.364 8.9067ZM146.143 6.08558C146.417 6.04527 146.651 6.24678 146.69 6.52889C146.69 6.5692 146.69 6.6095 146.69 6.6498V20.0703C146.729 20.3524 146.534 20.5942 146.26 20.6345C146.221 20.6345 146.182 20.6345 146.104 20.6345H144.465C144.192 20.6748 143.957 20.4733 143.918 20.1912C143.918 20.1509 143.918 20.1106 143.918 20.0703V6.6498C143.879 6.36769 144.075 6.12588 144.309 6.08558C144.348 6.08558 144.387 6.08558 144.465 6.08558H146.143ZM146.612 0.483622C147.236 1.24936 147.236 2.37781 146.612 3.14354C145.87 3.78837 144.777 3.78837 144.036 3.14354C143.411 2.37781 143.411 1.24936 144.036 0.483622C144.777 -0.161207 145.87 -0.161207 146.612 0.483622Z" fill="white"/>
</svg>
