<svg width="160" height="40" viewBox="0 0 160 40" fill="none" xmlns="http://www.w3.org/2000/svg">
<path d="M25.2414 21.2019C25.1917 17.9485 26.5287 15.4152 29.2506 13.6019C27.7168 11.2552 25.4529 9.93519 22.4589 9.64185C21.394 9.53519 20.0331 9.79995 18.3761 10.4419C16.5922 11.1352 15.5899 11.4799 15.3674 11.4799C14.8966 11.4799 13.9936 11.1885 12.6566 10.5999C11.3214 10.0133 10.183 9.72185 9.24138 9.72185C7.65793 9.74662 6.18483 10.2076 4.82575 11.1009C3.46483 11.9942 2.37609 13.2152 1.55954 14.7599C0.518621 16.6819 0 18.9752 0 21.6419C0 24.0419 0.382529 26.4419 1.14943 28.8419C1.86667 31.1352 2.78253 33.1485 3.89517 34.8819C4.8846 36.4552 5.75265 37.6019 6.4938 38.3238C7.55862 39.4419 8.64552 39.9771 9.76184 39.9238C10.4791 39.8952 11.417 39.6171 12.5812 39.0819C13.6699 38.5771 14.7586 38.3257 15.8474 38.3257C16.8625 38.3257 17.9145 38.579 19.0032 39.0819C20.2152 39.6171 21.2064 39.8838 21.9715 39.8838C23.1099 39.8323 24.1747 39.3104 25.1641 38.3257C25.5099 38.0038 25.8887 37.5638 26.2952 37.0038C26.7035 36.4457 27.154 35.7771 27.6506 35.0038C27.9963 34.4438 28.3366 33.8457 28.6713 33.2038C29.006 32.5638 29.3076 31.8857 29.5816 31.1638C29.7048 30.8723 29.8152 30.5714 29.9145 30.2647C30.0138 29.958 30.1131 29.6457 30.2124 29.3257C29.2966 28.899 28.4671 28.2971 27.726 27.5238C26.0947 25.8171 25.2653 23.7085 25.2414 21.2019Z" fill="white"/>
<path d="M52.1563 28.3334H51.9761L44.4395 10.2229H38.5195V39.4419H43.6782V20.5181H43.9172L50.2179 35.5448H53.8354L60.1159 20.5181H60.3549V39.4419H65.5742V10.2229H59.6947L52.1563 28.3334Z" fill="white"/>
<path d="M20.5628 6.4C21.8759 4.66857 22.5307 2.8 22.5307 0.8C22.5307 0.668571 22.5307 0.533333 22.5307 0.4C22.5307 0.266667 22.5178 0.133333 22.4939 0C21.5762 0.0533333 20.607 0.36 19.5789 0.92C18.5527 1.48 17.7049 2.18667 17.0373 3.03809C15.7003 4.72 15.0327 6.5181 15.0327 8.44C15.0327 8.57333 15.0327 8.69905 15.0327 8.81714C15.0327 8.93905 15.0456 9.06667 15.0695 9.2C17.1238 9.41333 18.9555 8.48 20.5628 6.4Z" fill="white"/>
<path d="M131.669 10.2229H125.87V39.4419H131.669V10.2229Z" fill="white"/>
<path d="M149.183 14.8685C152.622 14.8685 154.441 17.6513 154.441 20.6475H160V20.0285C160 14.377 155.901 9.66846 149.142 9.66846C141.902 9.66846 137.583 14.678 137.583 23.2189V26.5142C137.583 35.0532 141.863 39.9999 149.122 39.9999C156.061 39.9999 160 35.2246 160 29.9161V29.2742H154.441C154.441 32.2932 152.66 34.7961 149.223 34.7961C145.703 34.7961 143.463 32.1637 143.463 26.5313V23.238C143.463 17.6285 145.723 14.8685 149.183 14.8685Z" fill="white"/>
<path d="M87.7519 28.6762C87.7519 32.5943 85.5726 34.7543 82.3726 34.7543C79.1542 34.7543 76.973 32.6134 76.973 28.6762V10.2229H71.2148V29.5315C71.2148 35.7619 75.4153 40 82.3726 40C89.3114 40 93.5303 35.7619 93.5303 29.5315V10.2229H87.7519V28.6762Z" fill="white"/>
<path d="M112.716 22.4247L108.578 21.4399C106.139 20.9028 104.859 19.7694 104.859 18.0761C104.859 15.8285 106.599 14.417 109.4 14.417C112.558 14.417 114.137 16.3218 114.277 18.377H119.677C119.616 13.217 115.517 9.62085 109.418 9.62085C103.64 9.62085 99.0808 12.8113 99.0808 18.5485C99.0808 23.5142 102.279 25.8247 106.119 26.7047L110.218 27.7085C112.977 28.3732 114.376 29.3351 114.376 31.3256C114.376 33.5942 112.657 35.137 109.439 35.137C105.979 35.137 104.159 33.2094 103.999 31.0475H98.439C98.5199 35.1808 101.12 39.9961 109.159 39.9961C115.918 39.9961 120.096 36.4647 120.096 30.7256C120.094 25.4208 116.714 23.3447 112.716 22.4247Z" fill="white"/>
</svg>
