<svg width="428" height="323" viewBox="0 0 428 323" fill="none" xmlns="http://www.w3.org/2000/svg">
<line x1="7.5" y1="223.229" x2="7.5" y2="99.7714" stroke="#D33538" stroke-width="5" stroke-linecap="round"/>
<line x1="17.5" y1="235.407" x2="17.5" y2="87.5934" stroke="#D33538" stroke-width="5" stroke-linecap="round"/>
<line x1="27.5" y1="225.22" x2="27.5" y2="97.7802" stroke="#D33538" stroke-width="5" stroke-linecap="round"/>
<line x1="37.5" y1="205.363" x2="37.5" y2="117.637" stroke="#D33538" stroke-width="5" stroke-linecap="round"/>
<line x1="47.5" y1="232.761" x2="47.5" y2="90.2389" stroke="#D33538" stroke-width="5" stroke-linecap="round"/>
<line x1="57.5" y1="226.529" x2="57.5" y2="96.4714" stroke="#D33538" stroke-width="5" stroke-linecap="round"/>
<line x1="67.5" y1="202.666" x2="67.5" y2="120.334" stroke="#D33538" stroke-width="5" stroke-linecap="round"/>
<line x1="77.5" y1="202.197" x2="77.5" y2="120.803" stroke="#D33538" stroke-width="5" stroke-linecap="round"/>
<line x1="87.5" y1="222.385" x2="87.5" y2="100.615" stroke="#D33538" stroke-width="5" stroke-linecap="round"/>
<line x1="97.5" y1="218.197" x2="97.5" y2="104.803" stroke="#D33538" stroke-width="5" stroke-linecap="round"/>
<line x1="107.5" y1="222.044" x2="107.5" y2="100.956" stroke="#D33538" stroke-width="5" stroke-linecap="round"/>
<line x1="117.5" y1="226.013" x2="117.5" y2="96.9871" stroke="#D33538" stroke-width="5" stroke-linecap="round"/>
<line x1="127.5" y1="225.914" x2="127.5" y2="97.0865" stroke="#D33538" stroke-width="5" stroke-linecap="round"/>
<line x1="137.5" y1="221.335" x2="137.5" y2="101.665" stroke="#D33538" stroke-width="5" stroke-linecap="round"/>
<line x1="147.5" y1="227.458" x2="147.5" y2="95.5416" stroke="#D33538" stroke-width="5" stroke-linecap="round"/>
<line x1="157.5" y1="235.989" x2="157.5" y2="87.0114" stroke="#D33538" stroke-width="5" stroke-linecap="round"/>
<line x1="167.5" y1="212.932" x2="167.5" y2="110.068" stroke="#D33538" stroke-width="5" stroke-linecap="round"/>
<line x1="177.5" y1="212.316" x2="177.5" y2="110.684" stroke="#D33538" stroke-width="5" stroke-linecap="round"/>
<line x1="187.5" y1="218.77" x2="187.5" y2="104.23" stroke="#D33538" stroke-width="5" stroke-linecap="round"/>
<line x1="197.5" y1="215.729" x2="197.5" y2="107.271" stroke="#D33538" stroke-width="5" stroke-linecap="round"/>
<line x1="207.5" y1="200.19" x2="207.5" y2="122.81" stroke="#D33538" stroke-width="5" stroke-linecap="round"/>
<line x1="217.5" y1="228.056" x2="217.5" y2="94.944" stroke="#D33538" stroke-width="5" stroke-linecap="round"/>
<line x1="227.5" y1="230.491" x2="227.5" y2="92.5085" stroke="#D33538" stroke-width="5" stroke-linecap="round"/>
<line x1="237.5" y1="231.703" x2="237.5" y2="91.2969" stroke="#D33538" stroke-width="5" stroke-linecap="round"/>
<line x1="247.5" y1="205.066" x2="247.5" y2="117.934" stroke="#D33538" stroke-width="5" stroke-linecap="round"/>
<line x1="257.5" y1="206.837" x2="257.5" y2="116.163" stroke="#D33538" stroke-width="5" stroke-linecap="round"/>
<line x1="267.5" y1="192.426" x2="267.5" y2="130.574" stroke="#D33538" stroke-width="5" stroke-linecap="round"/>
<line x1="277.5" y1="239.263" x2="277.5" y2="83.7373" stroke="#D33538" stroke-width="5" stroke-linecap="round"/>
<line x1="287.5" y1="196.719" x2="287.5" y2="126.281" stroke="#D33538" stroke-width="5" stroke-linecap="round"/>
<line x1="297.5" y1="215.342" x2="297.5" y2="107.658" stroke="#D33538" stroke-width="5" stroke-linecap="round"/>
<line x1="307.5" y1="220.308" x2="307.5" y2="102.692" stroke="#D33538" stroke-width="5" stroke-linecap="round"/>
<line x1="317.5" y1="213.747" x2="317.5" y2="109.253" stroke="#D33538" stroke-width="5" stroke-linecap="round"/>
<line x1="327.5" y1="207.481" x2="327.5" y2="115.519" stroke="#D33538" stroke-width="5" stroke-linecap="round"/>
<line x1="337.5" y1="196.23" x2="337.5" y2="126.77" stroke="#D33538" stroke-width="5" stroke-linecap="round"/>
<line x1="347.5" y1="194.105" x2="347.5" y2="128.895" stroke="#D33538" stroke-width="5" stroke-linecap="round"/>
<line x1="357.5" y1="233.169" x2="357.5" y2="89.8308" stroke="#D33538" stroke-width="5" stroke-linecap="round"/>
<line x1="367.5" y1="219.157" x2="367.5" y2="103.843" stroke="#D33538" stroke-width="5" stroke-linecap="round"/>
<line x1="377.5" y1="195.499" x2="377.5" y2="127.501" stroke="#D33538" stroke-width="5" stroke-linecap="round"/>
<line x1="387.5" y1="217.065" x2="387.5" y2="105.935" stroke="#D33538" stroke-width="5" stroke-linecap="round"/>
<line x1="397.5" y1="223.924" x2="397.5" y2="99.0762" stroke="#D33538" stroke-width="5" stroke-linecap="round"/>
<line x1="407.5" y1="196.548" x2="407.5" y2="126.452" stroke="#D33538" stroke-width="5" stroke-linecap="round"/>
<line x1="417.5" y1="206.334" x2="417.5" y2="116.666" stroke="#D33538" stroke-width="5" stroke-linecap="round"/>
</svg>
