<svg width="160" height="48" viewBox="0 0 160 48" fill="none" xmlns="http://www.w3.org/2000/svg">
<path fill-rule="evenodd" clip-rule="evenodd" d="M56.9932 11.6992H65.8659C71.3597 11.6992 75.244 15.6128 75.244 21.1755C75.244 26.7381 71.3597 30.6517 65.8659 30.6517H56.9932V11.6992ZM63.8899 25.5333H65.4994C67.2236 25.5333 68.1438 24.3025 68.1438 21.1772C68.1438 18.0519 67.2236 16.8211 65.4994 16.8211H63.8899V25.5333ZM90.8762 30.6517H76.3014V11.6992H90.8762V16.8194H83.1755V19.0095H90.4161V23.1945H83.1755V25.5333H90.8762V30.6517ZM107.106 30.6517H92.5326V11.6992H107.106V16.8194H99.4051V19.0095H106.646V23.1945H99.4051V25.5333H107.106V30.6517ZM160 30.6517C159.007 27.7545 157.617 24.6621 155.749 21.1962C157.935 20.5099 159.241 19.0354 159.241 16.771C159.241 13.3258 156.276 11.7009 151.586 11.7009H141.932V30.6534H148.828V22.8142C150.36 25.5765 151.489 28.185 152.23 30.6534L160 30.6517ZM148.828 20.1677V16.8194H151.219C152.231 16.8194 152.806 17.4105 152.806 18.4926C152.806 19.5748 152.231 20.1659 151.219 20.1659L148.828 20.1677ZM140.277 30.6517H125.702V11.6992H140.277V16.8194H132.576V19.0095H139.817V23.1945H132.576V25.5333H140.277V30.6517ZM108.761 16.8194H115.877C112.924 19.4054 110.494 22.3353 108.623 25.5333V30.6534H124.278V25.5333H116.453C118.247 22.7398 120.751 19.9585 124.278 16.8194V11.6992H108.762V16.8194H108.761Z" fill="white"/>
<path fill-rule="evenodd" clip-rule="evenodd" d="M37.5978 7.32411C38.0127 4.75021 38.6213 3.13224 39.2961 3.12878H39.2977C40.5553 3.13397 41.574 8.74676 41.574 15.6767C41.574 22.6067 40.5537 28.2247 39.2945 28.2247C38.7779 28.2247 38.3033 27.2705 37.919 25.6716C37.3136 31.5229 36.056 35.5454 34.6014 35.5454C33.4762 35.5454 32.4656 33.1288 31.7875 29.3189C31.3242 36.5653 30.1586 41.7079 28.7961 41.7079C27.9404 41.7079 27.1607 39.6698 26.5843 36.3526C25.8901 43.2014 24.287 48 22.4176 48C20.5481 48 18.9418 43.2031 18.2508 36.3526C17.6777 39.6698 16.8979 41.7079 16.0391 41.7079C14.6765 41.7079 13.5141 36.567 13.0476 29.3189C12.3695 33.1288 11.3621 35.5454 10.2337 35.5454C8.78072 35.5454 7.52149 31.5246 6.91609 25.6716C6.53509 27.274 6.05723 28.223 5.54062 28.223C4.283 28.223 3.26109 22.605 3.26109 15.675C3.26109 8.74503 4.28139 3.12705 5.54062 3.12705C6.21544 3.12705 6.82084 4.75021 7.23897 7.32238C7.91056 2.88504 9.00028 0 10.2337 0C11.6979 0 12.9652 4.07951 13.5658 10.0035C14.1534 5.69231 15.043 2.94382 16.0407 2.94382C17.4387 2.94382 18.6269 8.34918 19.0677 15.8911C19.8959 12.0242 21.0938 9.59896 22.4208 9.59896C23.7478 9.59896 24.9457 12.0259 25.7723 15.8911C26.2146 8.35091 27.4012 2.94382 28.7993 2.94382C29.7954 2.94382 30.6849 5.69231 31.2742 10.0035C31.8731 4.07951 33.142 0 34.6047 0C35.8316 0.00172861 36.9262 2.88678 37.5978 7.32411ZM0 14.4425C0 11.3449 0.577956 8.83319 1.29313 8.83319C2.0067 8.83319 2.58627 11.3449 2.58627 14.4425C2.58627 17.5402 2.00831 20.0519 1.29313 20.0519C0.57957 20.0519 0 17.5402 0 14.4425ZM42.2424 14.4425C42.2424 11.3449 42.8203 8.83319 43.5355 8.83319C44.2491 8.83319 44.8287 11.3449 44.8287 14.4425C44.8287 17.5402 44.2507 20.0519 43.5355 20.0519C42.8203 20.0519 42.2424 17.5402 42.2424 14.4425Z" fill="#A238FF"/>
</svg>
