<svg width="120" height="28" viewBox="0 0 120 28" fill="none" xmlns="http://www.w3.org/2000/svg">
<path d="M4.53901 0.400019L9.62649 7.96524C9.66431 8.01741 9.75887 8.01741 9.7967 7.96524L14.8274 0.400019C14.8463 0.382628 14.8653 0.365234 14.9031 0.365234H19.1962C19.253 0.365234 19.2908 0.400017 19.2908 0.452191V17.3218C19.2908 17.3739 19.253 17.4087 19.1962 17.4087H15.3192C15.2624 17.4087 15.2246 17.3739 15.2246 17.3218V6.17393H15.0355C14.9976 6.17393 14.9787 6.19133 14.9598 6.20872L10.7234 12.6087C10.7045 12.6261 10.6856 12.6435 10.6478 12.6435H8.60521C8.56738 12.6435 8.54847 12.6261 8.52956 12.6087L4.29315 6.20872C4.27424 6.19133 4.25532 6.17393 4.2175 6.17393H4.02837V17.3218C4.02837 17.3739 3.99055 17.4087 3.93381 17.4087H0.0945627C0.0378251 17.4087 0 17.3739 0 17.3218V0.452191C0 0.400017 0.0378251 0.365234 0.0945627 0.365234H4.48227C4.50119 0.365234 4.5201 0.382628 4.53901 0.400019Z" fill="white"/>
<path d="M27.7446 0.365234C27.8014 0.365234 27.8392 0.400017 27.8392 0.452191V9.86089C27.8392 11.2522 28.1986 12.3478 28.9172 13.1479C29.6359 13.9305 30.6761 14.3305 32.0378 14.3305C33.4184 14.3305 34.4775 13.9478 35.1773 13.2C35.877 12.4522 36.2364 11.3565 36.2364 9.91306V0.452191C36.2364 0.400017 36.2742 0.365234 36.3309 0.365234H40.3215C40.3782 0.365234 40.416 0.400017 40.416 0.452191V9.82611C40.416 12.2609 39.6785 14.1739 38.2222 15.6174C36.7659 17.0609 34.7045 17.7739 32.0189 17.7739C29.3522 17.7739 27.2907 17.0783 25.8345 15.6696C24.3782 14.2609 23.6406 12.3478 23.6406 9.91306V0.452191C23.6406 0.400017 23.6785 0.365234 23.7352 0.365234H27.7446Z" fill="white"/>
<path d="M57.2481 4.8174C57.2103 4.85218 57.1535 4.86957 57.1157 4.83479C55.6594 3.87827 53.9384 3.39131 51.9148 3.39131C49.6642 3.39131 48.5483 3.94783 48.5483 5.06087C48.5483 5.54783 48.7375 5.91305 49.1157 6.17392C49.494 6.41739 50.1181 6.59131 50.9881 6.69566L53.6925 7.02609C55.7162 7.26957 57.2292 7.84348 58.2316 8.73044C59.2528 9.6174 59.7446 10.7826 59.7446 12.2435C59.7446 13.9478 59.0448 15.287 57.6453 16.2783C56.2457 17.2696 54.2788 17.7739 51.7256 17.7739C50.1559 17.7739 48.7375 17.6174 47.4892 17.3217C46.2599 17.0261 45.0873 16.5391 43.9337 15.8435C43.8958 15.8261 43.8769 15.7739 43.8958 15.7391L45.5601 12.7652C45.5791 12.713 45.6547 12.7131 45.6925 12.7304C47.5838 13.7913 49.6831 14.3304 51.9715 14.3304C53.163 14.3304 54.0708 14.1565 54.676 13.8261C55.3001 13.4957 55.6027 13.0435 55.6027 12.4522C55.6027 11.9478 55.3947 11.5478 54.9786 11.2522C54.5625 10.9565 53.9006 10.7652 52.9739 10.6609L50.1181 10.3304C46.3166 9.87827 44.4254 8.17392 44.4254 5.23479C44.4254 3.58261 45.0873 2.29565 46.4301 1.37391C47.7729 0.452173 49.5696 0 51.8391 0C54.884 0 57.3237 0.695654 59.1772 2.10435C59.215 2.13913 59.215 2.19131 59.1961 2.22609L57.2481 4.8174Z" fill="white"/>
<path d="M67.4233 0.452191V17.3218C67.4233 17.3739 67.3855 17.4087 67.3288 17.4087H63.3382C63.2815 17.4087 63.2437 17.3739 63.2437 17.3218V0.452191C63.2437 0.400017 63.2815 0.365234 63.3382 0.365234H67.3288C67.3855 0.365234 67.4233 0.400017 67.4233 0.452191Z" fill="white"/>
<path d="M86.0709 5.04348C86.0331 5.07826 85.9764 5.09566 85.9386 5.06087C84.5958 4.01739 82.9504 3.49565 80.9835 3.49565C79.1868 3.49565 77.7494 4 76.6714 4.99131C75.5934 5.98261 75.0449 7.28696 75.0449 8.88696C75.0449 10.487 75.5934 11.7913 76.6714 12.7826C77.7683 13.7739 79.1679 14.2783 80.9078 14.2783C82.9882 14.2783 84.7471 13.6522 86.2222 12.4C86.2601 12.3652 86.3168 12.3652 86.3546 12.4L88.5863 14.9391C88.6241 14.9739 88.6052 15.0261 88.5863 15.0609C86.4681 16.8696 83.8393 17.7565 80.6809 17.7565C78.7707 17.7565 77.0875 17.3913 75.6123 16.6783C74.1371 15.9652 72.9835 14.9217 72.1702 13.5826C71.357 12.2435 70.9409 10.6957 70.9409 8.92175C70.9409 7.70435 71.1868 6.53913 71.6596 5.46087C72.1324 4.38261 72.8133 3.42609 73.6643 2.62609C74.5154 1.82609 75.6123 1.18261 76.8984 0.713045C78.1844 0.243479 79.6029 0 81.1537 0C83.9717 0 86.3357 0.76522 88.2459 2.29566C88.2837 2.33044 88.2837 2.38261 88.2648 2.41739L86.0709 5.04348Z" fill="white"/>
<path d="M95.8486 0.365234C95.9054 0.365234 95.9432 0.400017 95.9432 0.452191V9.86089C95.9432 11.2522 96.3025 12.3478 97.0212 13.1478C97.7399 13.9305 98.7801 14.3305 100.142 14.3305C101.522 14.3305 102.582 13.9478 103.281 13.2C103.981 12.4522 104.34 11.3565 104.34 9.91306V0.452191C104.34 0.400017 104.378 0.365234 104.435 0.365234H108.425C108.482 0.365234 108.52 0.400017 108.52 0.452191V9.82611C108.52 12.2609 107.782 14.1739 106.326 15.6174C104.87 17.0609 102.808 17.7739 100.123 17.7739C97.4562 17.7739 95.3947 17.0783 93.9385 15.6696C92.4822 14.2609 91.7446 12.3478 91.7446 9.91306V0.452191C91.7446 0.400017 91.7825 0.365234 91.8392 0.365234H95.8486Z" fill="white"/>
<path d="M112.605 0.365234C114.818 0.365234 116.614 0.921758 117.957 2.05219C119.319 3.18263 120 4.66089 120 6.52176C120 7.79132 119.659 8.92176 118.979 9.86089C118.298 10.8 117.371 11.5305 116.217 12.0174C115.064 12.5044 113.74 12.7479 112.283 12.7479H108.614C108.558 12.7479 107.518 12.7305 107.518 12.7826L105.248 16.4348C105.248 16.4348 105.116 16.4348 105.059 16.4348L104.113 16.9565C103.848 16.5913 104.057 16.9565 104.113 16.9565L104.378 0.452191C104.378 0.400017 104.416 0.365234 104.473 0.365234H112.605ZM108.501 8.6435C108.501 9.0435 108.86 9.37393 109.295 9.37393H112.265C113.362 9.37393 114.231 9.11306 114.875 8.60872C115.518 8.10437 115.82 7.40872 115.82 6.53915C115.82 5.66958 115.536 4.99133 114.95 4.48698C114.364 3.98263 113.532 3.75654 112.435 3.75654H109.295C108.86 3.75654 108.501 4.08698 108.501 4.48698V8.6435Z" fill="white"/>
<path d="M12.5141 22.8174C12.9301 22.8174 13.2706 22.9044 13.4975 23.0957C13.7245 23.2696 13.8379 23.4957 13.8379 23.774C13.8379 24.1218 13.6866 24.3653 13.384 24.5044V24.574C13.8569 24.7131 14.1027 25.0088 14.1027 25.4783C14.1027 25.774 13.9892 26.0174 13.7434 26.2087C13.4975 26.4001 13.1571 26.487 12.6843 26.487H10.6606V22.8174H12.5141ZM11.0578 24.4348H12.5708C12.8545 24.4348 13.0814 24.3827 13.2138 24.2609C13.3462 24.1392 13.4219 23.9827 13.4219 23.7914C13.4219 23.6001 13.3462 23.4435 13.1949 23.3218C13.0436 23.2001 12.7978 23.1479 12.4762 23.1479H11.0578V24.4348ZM11.0578 26.174H12.6654C13.3462 26.174 13.6867 25.9305 13.6867 25.4609C13.6867 25.2348 13.611 25.0609 13.4408 24.9392C13.2895 24.8174 13.0247 24.7479 12.6843 24.7479H11.0389V26.174H11.0578Z" fill="white"/>
<path d="M16.8638 22.7304C18.0364 22.7304 18.6227 23.2 18.6227 24.1217V25.6869C18.6227 25.8782 18.6605 26.0174 18.7362 26.1043C18.8118 26.1913 18.9064 26.2435 19.0388 26.2435C19.1333 26.2435 19.209 26.2261 19.2468 26.2087L19.3035 26.4695C19.209 26.5217 19.0955 26.5391 18.982 26.5391C18.774 26.5391 18.6227 26.4869 18.5092 26.3826C18.3957 26.2782 18.3201 26.0869 18.3012 25.8435C18.131 26.0695 17.904 26.2608 17.6014 26.3826C17.2988 26.5043 16.9584 26.5739 16.5612 26.5739C16.0884 26.5739 15.7291 26.4695 15.4454 26.2608C15.1617 26.0522 15.0293 25.7565 15.0293 25.3913C15.0293 25.0435 15.1806 24.7478 15.4832 24.5391C15.7858 24.3304 16.2019 24.2087 16.7503 24.2087C17.3177 24.2087 17.8284 24.2956 18.2823 24.4695V24.1565C18.2823 23.4261 17.8284 23.0608 16.9206 23.0608C16.391 23.0608 15.9182 23.1826 15.4832 23.4087L15.3319 23.1478C15.7669 22.8695 16.2964 22.7304 16.8638 22.7304ZM16.7503 24.5043C16.2964 24.5043 15.956 24.5913 15.748 24.7478C15.5399 24.9043 15.4265 25.1304 15.4265 25.3913C15.4265 25.6522 15.5399 25.8782 15.748 26.0174C15.956 26.1739 16.2586 26.2435 16.6558 26.2435C16.9206 26.2435 17.1853 26.1913 17.4312 26.1043C17.6771 26.0174 17.8662 25.8782 18.0364 25.6869C18.1877 25.4956 18.2823 25.3043 18.2823 25.0608V24.7652C17.7905 24.6087 17.2799 24.5043 16.7503 24.5043Z" fill="white"/>
<path d="M20.5135 22.8174V26.1566H22.7641V22.8174H23.1613V26.1566H25.4119V22.8174H25.809V26.487H20.1353V22.8174H20.5135Z" fill="white"/>
<path d="M28.7598 22.7304C29.9324 22.7304 30.5187 23.2 30.5187 24.1217V25.6869C30.5187 25.8782 30.5565 26.0174 30.6321 26.1043C30.7078 26.1913 30.8024 26.2435 30.9348 26.2435C31.0293 26.2435 31.105 26.2261 31.1428 26.2087L31.1995 26.4695C31.105 26.5217 30.9915 26.5391 30.878 26.5391C30.67 26.5391 30.5187 26.4869 30.4052 26.3826C30.2917 26.2782 30.2161 26.0869 30.1972 25.8435C30.0269 26.0695 29.8 26.2608 29.4974 26.3826C29.1948 26.5043 28.8544 26.5739 28.4572 26.5739C27.9844 26.5739 27.6251 26.4695 27.3414 26.2608C27.0577 26.0522 26.9253 25.7565 26.9253 25.3913C26.9253 25.0435 27.0766 24.7478 27.3792 24.5391C27.6818 24.3304 28.0979 24.2087 28.6463 24.2087C29.2137 24.2087 29.7244 24.2956 30.1783 24.4695V24.1565C30.1783 23.4261 29.7243 23.0608 28.8165 23.0608C28.287 23.0608 27.8142 23.1826 27.3792 23.4087L27.2279 23.1478C27.644 22.8695 28.1735 22.7304 28.7598 22.7304ZM28.6463 24.5043C28.1924 24.5043 27.852 24.5913 27.644 24.7478C27.4359 24.9043 27.3225 25.1304 27.3225 25.3913C27.3225 25.6522 27.4359 25.8782 27.644 26.0174C27.852 26.1739 28.1546 26.2435 28.5518 26.2435C28.8165 26.2435 29.0813 26.1913 29.3272 26.1043C29.5731 26.0174 29.7622 25.8782 29.9324 25.6869C30.0837 25.4956 30.1783 25.3043 30.1783 25.0608V24.7652C29.6865 24.6087 29.1759 24.5043 28.6463 24.5043Z" fill="white"/>
<path d="M38.7267 22.8174V26.487H38.3296V23.3218H38.2539L36.6842 25.3566H36.4761L34.9064 23.3218H34.8308V26.487H34.4336V22.8174H34.9442L36.5707 24.9392L38.1972 22.8174H38.7267Z" fill="white"/>
<path d="M40.7128 27.9305C40.4859 27.9305 40.2967 27.8783 40.1265 27.7914L40.24 27.4783C40.3913 27.5479 40.5426 27.5653 40.7317 27.5653C40.9209 27.5653 41.0911 27.5131 41.2235 27.4088C41.3558 27.3044 41.4882 27.1305 41.6017 26.887L41.7719 26.5392L39.7104 22.8348H40.1833L41.961 26.1218H42.0367L43.4362 22.8348H43.8901L42.0178 26.9566C41.8476 27.3218 41.6584 27.5827 41.4504 27.7218C41.2424 27.8609 40.9965 27.9305 40.7128 27.9305Z" fill="white"/>
<path d="M46.2161 22.7304C46.6889 22.7304 47.0483 22.8174 47.313 23.0087C47.5778 23.2 47.7102 23.4435 47.7102 23.7391C47.7102 23.913 47.6724 24.0695 47.5778 24.1913C47.5022 24.3304 47.3698 24.4348 47.2185 24.4869V24.5565C47.4454 24.6261 47.5967 24.7478 47.7291 24.8869C47.8615 25.0261 47.8993 25.2 47.8993 25.4087C47.8993 25.7565 47.748 26.0348 47.4454 26.2435C47.1428 26.4522 46.6889 26.5565 46.1026 26.5565C45.4596 26.5565 44.9112 26.4 44.4194 26.0695L44.6275 25.8087C45.0814 26.0869 45.5731 26.2435 46.1026 26.2435C46.5376 26.2435 46.8781 26.1739 47.1239 26.0348C47.3698 25.8956 47.4833 25.7043 47.4833 25.4608C47.4833 25.2348 47.4076 25.0435 47.2563 24.9217C47.105 24.8 46.8781 24.7304 46.5755 24.7304H45.4407V24.4348H46.5376C46.7835 24.4348 46.9726 24.3826 47.105 24.2608C47.2374 24.1391 47.2941 23.9826 47.2941 23.7739C47.2941 23.5478 47.1996 23.3739 47.0294 23.2521C46.8591 23.113 46.5566 23.0608 46.1594 23.0608C45.8946 23.0608 45.6677 23.0956 45.4785 23.1478C45.2894 23.2 45.0814 23.2869 44.8922 23.4261L44.6842 23.1826C45.1192 22.8695 45.6298 22.7304 46.2161 22.7304Z" fill="white"/>
<path d="M52.3059 26.487V23.3566L49.4123 26.487H49.0151V22.8174H49.4123V26.0001L52.3248 22.8174H52.7031V26.487H52.3059Z" fill="white"/>
<path d="M54.197 22.8174V23.9653C54.197 24.7479 54.6131 25.1479 55.4263 25.1479C55.71 25.1479 55.9747 25.0957 56.2206 25.0088C56.4476 24.9218 56.6934 24.7653 56.9015 24.574V22.8348H57.2986V26.5044H56.9015V24.9392C56.4854 25.287 55.9748 25.4783 55.3317 25.4783C54.8589 25.4783 54.4807 25.3566 54.2159 25.1131C53.9511 24.8696 53.7998 24.5218 53.7998 24.1044V22.8522H54.197V22.8174Z" fill="white"/>
<path d="M58.8688 22.8174V24.4522H61.7057V22.8174H62.1029V26.487H61.7057V24.7827H58.8688V26.487H58.4717V22.8174H58.8688Z" fill="white"/>
<path d="M65.0528 22.7304C66.2254 22.7304 66.8116 23.2 66.8116 24.1217V25.6869C66.8116 25.8782 66.8495 26.0174 66.9251 26.1043C67.0008 26.1913 67.0953 26.2435 67.2277 26.2435C67.3223 26.2435 67.3979 26.2261 67.4358 26.2087L67.4925 26.4695C67.3979 26.5217 67.2845 26.5391 67.171 26.5391C66.9629 26.5391 66.8116 26.4869 66.6982 26.3826C66.5847 26.2782 66.5091 26.0869 66.4901 25.8435C66.3199 26.0695 66.093 26.2608 65.7904 26.3826C65.4878 26.5043 65.1473 26.5739 64.7502 26.5739C64.2774 26.5739 63.918 26.4695 63.6343 26.2608C63.3507 26.0522 63.2183 25.7565 63.2183 25.3913C63.2183 25.0435 63.3696 24.7478 63.6722 24.5391C63.9748 24.3304 64.3908 24.2087 64.9393 24.2087C65.5067 24.2087 66.0173 24.2956 66.4712 24.4695V24.1565C66.4712 23.4261 66.0173 23.0608 65.1095 23.0608C64.58 23.0608 64.1072 23.1826 63.6722 23.4087L63.5209 23.1478C63.9559 22.8695 64.4854 22.7304 65.0528 22.7304ZM64.9393 24.5043C64.4854 24.5043 64.145 24.5913 63.9369 24.7478C63.7289 24.9043 63.6154 25.1304 63.6154 25.3913C63.6154 25.6522 63.7289 25.8782 63.9369 26.0174C64.145 26.1739 64.4476 26.2435 64.8447 26.2435C65.1095 26.2435 65.3743 26.1913 65.6202 26.1043C65.866 26.0174 66.0551 25.8782 66.2254 25.6869C66.3767 25.4956 66.4712 25.3043 66.4712 25.0608V24.7652C65.9795 24.6087 65.4878 24.5043 64.9393 24.5043Z" fill="white"/>
<path d="M71.1236 22.8174V24.4001L72.2394 24.3479L73.639 22.8174H74.1685L72.6177 24.4696L74.3955 26.487H73.8659L72.2962 24.6957H71.1047V26.487H70.7075V22.8174H71.1236Z" fill="white"/>
<path d="M76.9302 22.7304C78.1028 22.7304 78.6891 23.2 78.6891 24.1217V25.6869C78.6891 25.8782 78.7269 26.0174 78.8026 26.1043C78.8782 26.1913 78.9728 26.2435 79.1052 26.2435C79.1997 26.2435 79.2754 26.2261 79.3132 26.2087L79.3699 26.4695C79.2754 26.5217 79.1619 26.5391 79.0484 26.5391C78.8404 26.5391 78.6891 26.4869 78.5756 26.3826C78.4621 26.2782 78.3865 26.0869 78.3676 25.8435C78.1974 26.0695 77.9704 26.2608 77.6678 26.3826C77.3652 26.5043 77.0248 26.5739 76.6276 26.5739C76.1548 26.5739 75.7955 26.4695 75.5118 26.2608C75.2281 26.0522 75.0957 25.7565 75.0957 25.3913C75.0957 25.0435 75.247 24.7478 75.5496 24.5391C75.8522 24.3304 76.2683 24.2087 76.8167 24.2087C77.3841 24.2087 77.8947 24.2956 78.3487 24.4695V24.1565C78.3487 23.4261 77.8948 23.0608 76.987 23.0608C76.4574 23.0608 75.9846 23.1826 75.5496 23.4087L75.3983 23.1478C75.8333 22.8695 76.3628 22.7304 76.9302 22.7304ZM76.8167 24.5043C76.3628 24.5043 76.0224 24.5913 75.8144 24.7478C75.6063 24.9043 75.4929 25.1304 75.4929 25.3913C75.4929 25.6522 75.6063 25.8782 75.8144 26.0174C76.0224 26.1739 76.325 26.2435 76.7222 26.2435C76.987 26.2435 77.2517 26.1913 77.4976 26.1043C77.7434 26.0174 77.9326 25.8782 78.1028 25.6869C78.2541 25.4956 78.3487 25.3043 78.3487 25.0608V24.7652C77.8569 24.6087 77.3652 24.5043 76.8167 24.5043Z" fill="white"/>
<path d="M82.0365 22.8174C82.4526 22.8174 82.793 22.9044 83.02 23.0957C83.2469 23.2696 83.3604 23.4957 83.3604 23.774C83.3604 24.1218 83.2091 24.3653 82.9065 24.5044V24.574C83.3793 24.7131 83.6252 25.0088 83.6252 25.4783C83.6252 25.774 83.5117 26.0174 83.2658 26.2087C83.02 26.4001 82.6796 26.487 82.2067 26.487H80.1831V22.8174H82.0365ZM80.5992 24.4348H82.1122C82.3959 24.4348 82.6228 24.3827 82.7552 24.2609C82.9065 24.1392 82.9633 23.9827 82.9633 23.7914C82.9633 23.6001 82.8876 23.4435 82.7363 23.3218C82.585 23.2001 82.3391 23.1479 82.0176 23.1479H80.5992V24.4348ZM80.5992 26.174H82.2067C82.8876 26.174 83.228 25.9305 83.228 25.4609C83.228 25.2348 83.1524 25.0609 82.9822 24.9392C82.8309 24.8174 82.5661 24.7479 82.2257 24.7479H80.5992V26.174Z" fill="white"/>
<path d="M84.1357 22C84.1357 21.8957 84.1736 21.8087 84.2492 21.7392C84.3249 21.6696 84.4194 21.6348 84.5329 21.6348C84.6464 21.6348 84.7409 21.6696 84.8166 21.7392C84.8922 21.8087 84.9301 21.8957 84.9301 22C84.9301 22.0522 84.9112 22.1044 84.8922 22.174L84.4573 23.1827L84.2303 23.1131L84.4573 22.3653C84.3627 22.3479 84.2681 22.3131 84.2114 22.2435C84.1736 22.174 84.1357 22.087 84.1357 22Z" fill="white"/>
<path d="M88.41 26.487V24.9392C88.1831 25.0609 87.9372 25.1479 87.7103 25.2001C87.4644 25.2522 87.1996 25.2696 86.8781 25.2696L85.819 26.487H85.3462L86.4809 25.1827C86.1594 25.1131 85.9136 24.974 85.7434 24.7827C85.5731 24.574 85.4786 24.3479 85.4786 24.0522C85.4786 23.7044 85.6299 23.4087 85.9325 23.1653C86.2351 22.9392 86.6512 22.8174 87.1807 22.8174H88.845V26.487H88.41ZM88.41 23.1305H87.1996C86.7646 23.1305 86.4431 23.2174 86.2162 23.374C85.9892 23.5479 85.8758 23.7566 85.8758 24.0348C85.8758 24.2957 85.9703 24.5218 86.1973 24.6957C86.4053 24.8522 86.7079 24.9392 87.0672 24.9392C87.559 24.9392 87.9939 24.8174 88.41 24.5914V23.1305Z" fill="white"/>
<path d="M92.249 22.7304C92.8164 22.7304 93.2892 22.9043 93.6297 23.2348C93.989 23.5652 94.1592 24.0348 94.1592 24.5913C94.1592 24.8521 94.1214 25.0782 94.0457 25.2869C93.9701 25.4956 93.8566 25.6869 93.7242 25.8435C93.5918 26 93.4405 26.1217 93.2514 26.2435C93.0623 26.3652 92.8731 26.4348 92.684 26.4869C92.476 26.5391 92.2679 26.5739 92.0599 26.5739C91.7195 26.5739 91.4169 26.5391 91.171 26.4522C90.9252 26.3826 90.6793 26.2435 90.4523 26.0695V28H90.0552V22.8174H90.3578L90.4145 23.7739C90.7549 23.0782 91.3601 22.7304 92.249 22.7304ZM92.0032 26.2608C92.5327 26.2608 92.9488 26.1043 93.2703 25.8087C93.5918 25.513 93.7431 25.0956 93.7431 24.5913C93.7431 24.1391 93.5918 23.7739 93.3081 23.4956C93.0244 23.2174 92.6273 23.0782 92.1545 23.0782C91.7573 23.0782 91.4169 23.1826 91.1143 23.4087C90.8117 23.6348 90.6036 23.9304 90.4334 24.313V25.7043C90.6604 25.913 90.9062 26.0521 91.1521 26.1391C91.4169 26.2087 91.7006 26.2608 92.0032 26.2608Z" fill="white"/>
<path d="M95.6159 22.8174V24.4522H98.4528V22.8174H98.85V26.487H98.4528V24.7827H95.6159V26.487H95.2188V22.8174H95.6159Z" fill="white"/>
<path d="M102.935 26.487V24.9392C102.708 25.0609 102.462 25.1479 102.235 25.2001C101.989 25.2522 101.725 25.2696 101.403 25.2696L100.344 26.487H99.8711L101.006 25.1827C100.684 25.1131 100.438 24.974 100.268 24.7827C100.098 24.574 100.003 24.3479 100.003 24.0522C100.003 23.7044 100.155 23.4087 100.457 23.1653C100.76 22.9218 101.176 22.8174 101.706 22.8174H103.37V26.487H102.935ZM102.935 23.1305H101.725C101.29 23.1305 100.968 23.2174 100.741 23.374C100.514 23.5479 100.401 23.7566 100.401 24.0348C100.401 24.2957 100.495 24.5218 100.722 24.6957C100.93 24.8522 101.233 24.9392 101.592 24.9392C102.084 24.9392 102.519 24.8174 102.935 24.5914V23.1305Z" fill="white"/>
</svg>
