<svg width="148" height="40" viewBox="0 0 148 40" fill="none" xmlns="http://www.w3.org/2000/svg">
<rect x="1" y="1" width="146" height="38" rx="19" fill="#070000"/>
<rect x="1" y="1" width="146" height="38" rx="19" stroke="#480000" stroke-width="2"/>
<path d="M48.8686 18.8828H46.6911C46.6513 18.6011 46.5701 18.3509 46.4474 18.1321C46.3248 17.91 46.1674 17.7211 45.9751 17.5653C45.7829 17.4096 45.5608 17.2902 45.3089 17.2074C45.0604 17.1245 44.7902 17.0831 44.4986 17.0831C43.9716 17.0831 43.5125 17.214 43.1214 17.4759C42.7304 17.7344 42.4271 18.1122 42.2116 18.6094C41.9962 19.1032 41.8885 19.7031 41.8885 20.4091C41.8885 21.1349 41.9962 21.7448 42.2116 22.2386C42.4304 22.7325 42.7353 23.1054 43.1264 23.3572C43.5175 23.6091 43.9699 23.7351 44.4837 23.7351C44.772 23.7351 45.0388 23.697 45.2841 23.6207C45.5327 23.5445 45.7531 23.4335 45.9453 23.2876C46.1375 23.1385 46.2966 22.9579 46.4226 22.7457C46.5518 22.5336 46.6413 22.2917 46.6911 22.0199L48.8686 22.0298C48.8123 22.4972 48.6714 22.9479 48.446 23.3821C48.224 23.813 47.924 24.1991 47.5462 24.5405C47.1716 24.8786 46.7242 25.147 46.2038 25.3459C45.6868 25.5414 45.1018 25.6392 44.4489 25.6392C43.5407 25.6392 42.7287 25.4337 42.0128 25.0227C41.3002 24.6117 40.7367 24.0168 40.3224 23.2379C39.9115 22.459 39.706 21.5161 39.706 20.4091C39.706 19.2988 39.9148 18.3542 40.3324 17.5753C40.75 16.7964 41.3168 16.2031 42.0327 15.7955C42.7486 15.3845 43.554 15.179 44.4489 15.179C45.0388 15.179 45.5857 15.2618 46.0895 15.4276C46.5966 15.5933 47.0457 15.8352 47.4368 16.1534C47.8279 16.4683 48.1461 16.8544 48.3913 17.3118C48.6399 17.7692 48.799 18.2929 48.8686 18.8828ZM49.8604 25.5V23.7699L50.1488 23.745C50.52 23.7152 50.82 23.5743 51.0487 23.3224C51.2773 23.0672 51.448 22.6612 51.5607 22.1044C51.6767 21.5443 51.7513 20.7919 51.7844 19.8473L51.9535 15.3182H58.864V25.5H56.771V17.0433H53.9521L53.793 20.5881C53.7399 21.7282 53.604 22.6596 53.3853 23.3821C53.1699 24.1046 52.8252 24.6383 52.3512 24.983C51.8806 25.3277 51.2359 25.5 50.4173 25.5H49.8604ZM61.7376 25.6392V23.8892H62.2894C62.5645 23.8892 62.7866 23.8561 62.9556 23.7898C63.1246 23.7202 63.2589 23.6191 63.3583 23.4865C63.4611 23.3506 63.5472 23.1816 63.6168 22.9794L63.7411 22.6463L60.0423 15.3182H62.2695L64.6658 20.3295L66.6694 15.3182H68.8668L65.3569 23.5014C65.1879 23.8793 64.9873 24.2306 64.7553 24.5554C64.5266 24.8802 64.2333 25.142 63.8754 25.3409C63.5174 25.5398 63.06 25.6392 62.5032 25.6392H61.7376ZM72.0499 15.3182L74.1032 18.7884H74.1827L76.2459 15.3182H78.677L75.5698 20.4091L78.7466 25.5H76.2708L74.1827 22.0249H74.1032L72.0151 25.5H69.5492L72.736 20.4091L69.6088 15.3182H72.0499ZM81.7942 25.5H79.4874L83.0023 15.3182H85.7765L89.2864 25.5H86.9796L84.4292 17.6449H84.3496L81.7942 25.5ZM81.65 21.4979H87.0989V23.1783H81.65V21.4979ZM88.88 17.093V15.3182H97.2422V17.093H94.125V25.5H91.9972V17.093H88.88ZM98.6193 15.3182H100.767V21.7216H100.852L105.251 15.3182H107.136V25.5H104.983V19.0916H104.908L100.484 25.5H98.6193V15.3182Z" fill="#969696"/>
</svg>
